<svg xmlns="http://www.w3.org/2000/svg" width="1300" height="1300" viewBox="0 0 1300 1300" version="1.1">
	<path d="M 627.500 235.595 C 547.728 241.698, 482.967 263.213, 423 303.535 C 407.209 314.153, 400.006 319.909, 382.262 336.086 C 347.882 367.430, 324.371 398.300, 305.023 437.500 C 284.110 479.872, 273.603 522.079, 273.531 564 L 273.500 582.500 276.500 588 C 280.591 595.501, 288.439 603.183, 295.811 606.904 L 301.943 610 650.082 610 L 998.220 610 1004.320 606.750 C 1011.942 602.689, 1019.612 595.174, 1023.456 588 C 1026.129 583.012, 1026.443 581.413, 1026.823 570.816 C 1027.784 544.016, 1021.109 504.741, 1010.307 473.639 C 993.932 426.490, 968.364 386.250, 931.064 348.922 C 912.033 329.876, 899.178 318.979, 880.014 305.644 C 824.240 266.835, 759.091 243.573, 687.906 237.051 C 676.194 235.978, 635.360 234.994, 627.500 235.595 M 296.722 670.652 C 287.733 675.474, 282.484 680.759, 278.655 688.841 C 275.566 695.360, 275.500 695.805, 275.500 710 C 275.500 724.192, 275.567 724.641, 278.651 731.151 C 282.467 739.205, 287.670 744.608, 296.139 749.309 L 302.500 752.840 342 753.364 C 363.725 753.653, 381.950 753.872, 382.500 753.852 C 383.050 753.833, 504.086 753.601, 651.468 753.338 L 919.437 752.860 917.476 755.180 L 915.514 757.500 918.072 755.250 C 920.627 753.001, 920.654 753, 958.418 753 L 996.208 753 1003.119 749.368 C 1012.190 744.602, 1017.481 739.315, 1021.345 731.159 C 1024.435 724.638, 1024.500 724.199, 1024.499 709.977 C 1024.498 695.538, 1024.479 695.416, 1021.162 688.678 C 1016.746 679.707, 1011.858 674.773, 1003.439 670.786 L 996.500 667.500 650 667.258 L 303.500 667.016 296.722 670.652 M 340.500 806.442 C 324.167 808.983, 303.302 817.510, 291.500 826.466 C 283.401 832.612, 272.264 843.597, 270.275 847.400 C 268.048 851.659, 268.264 859.538, 270.698 862.797 C 273.829 866.990, 277.485 869.188, 282.220 869.721 C 288.026 870.376, 290.749 868.907, 301.840 859.141 C 312.804 849.486, 320.172 844.935, 330.392 841.504 C 353.767 833.658, 380.783 836.639, 399.928 849.179 C 403.463 851.494, 412.238 859.039, 419.428 865.945 C 426.617 872.851, 435.503 880.637, 439.173 883.246 C 472.137 906.685, 514.450 910.143, 551.852 892.453 C 564.468 886.486, 571.274 881.434, 587.787 865.775 C 607.635 846.954, 618.833 840.737, 637.901 837.953 C 654.540 835.523, 671.262 838.086, 685.500 845.248 C 695.015 850.034, 699.666 853.628, 713 866.495 C 727.163 880.162, 734.984 886.070, 746.500 891.798 C 762.760 899.886, 777.579 903.325, 796.500 903.402 C 815.551 903.479, 827.217 900.779, 845.500 892.061 C 857.861 886.167, 864.013 881.586, 880.216 866.210 C 897.565 849.747, 905.212 844.808, 921.035 839.848 C 927.397 837.854, 930.568 837.512, 942.500 837.534 C 958.326 837.563, 964.953 838.906, 976.744 844.475 C 985.931 848.813, 991.018 852.326, 999.840 860.421 C 1007.974 867.887, 1011.586 870.001, 1016.200 869.998 C 1026.121 869.994, 1034.511 858.476, 1030.916 849.796 C 1027.266 840.986, 1010.395 826.095, 994.920 818.028 C 985.645 813.192, 971.827 808.479, 962.637 807.017 C 952.654 805.429, 928.718 805.662, 920.436 807.428 C 906.279 810.446, 892.288 816.347, 880.780 824.154 C 877.634 826.288, 868.241 834.343, 859.907 842.054 C 851.572 849.765, 842.756 857.448, 840.314 859.128 C 820.342 872.869, 790.027 875.808, 766.288 866.305 C 756.416 862.352, 749.709 857.461, 733.220 842.187 C 712.567 823.057, 704.421 817.718, 686 811.239 C 674.514 807.199, 665.049 805.759, 650 805.759 C 634.951 805.759, 625.486 807.199, 614 811.239 C 595.730 817.665, 587.568 822.983, 567.341 841.641 C 550.673 857.016, 546.950 859.944, 538.799 864.084 C 528.126 869.505, 519.037 871.412, 504 871.384 C 488.950 871.356, 481.113 869.885, 470.583 865.110 C 460.833 860.689, 455.747 856.836, 441.220 842.862 C 427.125 829.303, 415.991 821.176, 403.784 815.536 C 384.206 806.490, 361.326 803.203, 340.500 806.442 M 273.006 932.250 C 273.013 947.787, 274.832 961.175, 278.542 973.004 C 281.612 982.788, 290.843 1002.807, 293.618 1005.694 C 294.653 1006.772, 296.175 1008.830, 297 1010.267 C 297.825 1011.704, 301.145 1016.094, 304.377 1020.022 C 319.846 1038.822, 346.770 1055.641, 371.670 1062.059 C 386.195 1065.803, 408.777 1066.086, 669 1065.787 L 918.500 1065.500 930.500 1061.676 C 946.077 1056.711, 957.131 1051.478, 969.264 1043.322 C 988.260 1030.555, 1003.363 1013.232, 1013.346 992.762 C 1023.283 972.385, 1026.984 955.977, 1026.994 932.250 L 1027 919 650 919 L 273 919 273.006 932.250" stroke="none" fill="black" fill-rule="evenodd"/>
</svg>