<svg xmlns="http://www.w3.org/2000/svg" width="1300" height="1300" viewBox="0 0 1300 1300" version="1.1">
	<path d="M 627.500 235.595 C 547.728 241.698, 482.967 263.213, 423 303.535 C 407.209 314.153, 400.006 319.909, 382.262 336.086 C 347.882 367.430, 324.371 398.300, 305.023 437.500 C 284.110 479.872, 273.603 522.079, 273.531 564 L 273.500 582.500 276.500 588 C 280.591 595.501, 288.439 603.183, 295.811 606.904 L 301.943 610 650.082 610 L 998.220 610 1004.320 606.750 C 1011.942 602.689, 1019.612 595.174, 1023.456 588 C 1026.129 583.012, 1026.443 581.413, 1026.823 570.816 C 1027.784 544.016, 1021.109 504.741, 1010.307 473.639 C 993.932 426.490, 968.364 386.250, 931.064 348.922 C 912.033 329.876, 899.178 318.979, 880.014 305.644 C 824.240 266.835, 759.091 243.573, 687.906 237.051 C 676.194 235.978, 635.360 234.994, 627.500 235.595 " stroke="none" fill="black" fill-rule="evenodd"/>
</svg>