<svg xmlns="http://www.w3.org/2000/svg" width="1300" height="1300" viewBox="0 0 1300 1300" version="1.1">
	<path d="M 273.006 932.250 C 273.013 947.787, 274.832 961.175, 278.542 973.004 C 281.612 982.788, 290.843 1002.807, 293.618 1005.694 C 294.653 1006.772, 296.175 1008.830, 297 1010.267 C 297.825 1011.704, 301.145 1016.094, 304.377 1020.022 C 319.846 1038.822, 346.770 1055.641, 371.670 1062.059 C 386.195 1065.803, 408.777 1066.086, 669 1065.787 L 918.500 1065.500 930.500 1061.676 C 946.077 1056.711, 957.131 1051.478, 969.264 1043.322 C 988.260 1030.555, 1003.363 1013.232, 1013.346 992.762 C 1023.283 972.385, 1026.984 955.977, 1026.994 932.250 L 1027 919 650 919 L 273 919 273.006 932.250" stroke="none" fill="black" fill-rule="evenodd"/>
</svg>