<svg xmlns="http://www.w3.org/2000/svg" width="1300" height="1300" viewBox="0 0 1300 1300" version="1.1">
	<path d="M 296.722 670.652 C 287.733 675.474, 282.484 680.759, 278.655 688.841 C 275.566 695.360, 275.500 695.805, 275.500 710 C 275.500 724.192, 275.567 724.641, 278.651 731.151 C 282.467 739.205, 287.670 744.608, 296.139 749.309 L 302.500 752.840 342 753.364 C 363.725 753.653, 381.950 753.872, 382.500 753.852 C 383.050 753.833, 504.086 753.601, 651.468 753.338 L 919.437 752.860 917.476 755.180 L 915.514 757.500 918.072 755.250 C 920.627 753.001, 920.654 753, 958.418 753 L 996.208 753 1003.119 749.368 C 1012.190 744.602, 1017.481 739.315, 1021.345 731.159 C 1024.435 724.638, 1024.500 724.199, 1024.499 709.977 C 1024.498 695.538, 1024.479 695.416, 1021.162 688.678 C 1016.746 679.707, 1011.858 674.773, 1003.439 670.786 L 996.500 667.500 650 667.258 L 303.500 667.016 296.722 670.652 " stroke="none" fill="black" fill-rule="evenodd"/>
</svg>