<svg xmlns="http://www.w3.org/2000/svg" width="1300" height="1300" viewBox="0 0 1300 1300" version="1.1">
	<path d="M 340.500 806.442 C 324.167 808.983, 303.302 817.510, 291.500 826.466 C 283.401 832.612, 272.264 843.597, 270.275 847.400 C 268.048 851.659, 268.264 859.538, 270.698 862.797 C 273.829 866.990, 277.485 869.188, 282.220 869.721 C 288.026 870.376, 290.749 868.907, 301.840 859.141 C 312.804 849.486, 320.172 844.935, 330.392 841.504 C 353.767 833.658, 380.783 836.639, 399.928 849.179 C 403.463 851.494, 412.238 859.039, 419.428 865.945 C 426.617 872.851, 435.503 880.637, 439.173 883.246 C 472.137 906.685, 514.450 910.143, 551.852 892.453 C 564.468 886.486, 571.274 881.434, 587.787 865.775 C 607.635 846.954, 618.833 840.737, 637.901 837.953 C 654.540 835.523, 671.262 838.086, 685.500 845.248 C 695.015 850.034, 699.666 853.628, 713 866.495 C 727.163 880.162, 734.984 886.070, 746.500 891.798 C 762.760 899.886, 777.579 903.325, 796.500 903.402 C 815.551 903.479, 827.217 900.779, 845.500 892.061 C 857.861 886.167, 864.013 881.586, 880.216 866.210 C 897.565 849.747, 905.212 844.808, 921.035 839.848 C 927.397 837.854, 930.568 837.512, 942.500 837.534 C 958.326 837.563, 964.953 838.906, 976.744 844.475 C 985.931 848.813, 991.018 852.326, 999.840 860.421 C 1007.974 867.887, 1011.586 870.001, 1016.200 869.998 C 1026.121 869.994, 1034.511 858.476, 1030.916 849.796 C 1027.266 840.986, 1010.395 826.095, 994.920 818.028 C 985.645 813.192, 971.827 808.479, 962.637 807.017 C 952.654 805.429, 928.718 805.662, 920.436 807.428 C 906.279 810.446, 892.288 816.347, 880.780 824.154 C 877.634 826.288, 868.241 834.343, 859.907 842.054 C 851.572 849.765, 842.756 857.448, 840.314 859.128 C 820.342 872.869, 790.027 875.808, 766.288 866.305 C 756.416 862.352, 749.709 857.461, 733.220 842.187 C 712.567 823.057, 704.421 817.718, 686 811.239 C 674.514 807.199, 665.049 805.759, 650 805.759 C 634.951 805.759, 625.486 807.199, 614 811.239 C 595.730 817.665, 587.568 822.983, 567.341 841.641 C 550.673 857.016, 546.950 859.944, 538.799 864.084 C 528.126 869.505, 519.037 871.412, 504 871.384 C 488.950 871.356, 481.113 869.885, 470.583 865.110 C 460.833 860.689, 455.747 856.836, 441.220 842.862 C 427.125 829.303, 415.991 821.176, 403.784 815.536 C 384.206 806.490, 361.326 803.203, 340.500 806.442 " stroke="none" fill="black" fill-rule="evenodd"/>
</svg>